<svg xmlns="http://www.w3.org/2000/svg" xmlns:xlink="http://www.w3.org/1999/xlink" width="500" zoomAndPan="magnify" viewBox="0 0 375 299.999988" height="400" preserveAspectRatio="xMidYMid meet" version="1.0"><defs><g/><clipPath id="3e332e06be"><path d="M 5.597656 87 L 369 87 L 369 284 L 5.597656 284 Z M 5.597656 87 " clip-rule="nonzero"/></clipPath></defs><g clip-path="url(#3e332e06be)"><path fill="#efc332" d="M 320.007812 185.472656 C 320.007812 158.425781 298.085938 136.503906 271.046875 136.503906 C 271.046875 123.972656 266.265625 111.441406 256.710938 101.878906 C 237.589844 82.753906 206.589844 82.753906 187.472656 101.878906 C 169.160156 83.53125 139.472656 82.597656 120.03125 100.171875 C 109.335938 109.835938 103.902344 123.144531 103.898438 136.503906 C 103.894531 136.503906 103.894531 136.503906 103.894531 136.503906 C 76.855469 136.503906 54.933594 158.425781 54.933594 185.472656 C 27.898438 185.472656 5.980469 207.398438 5.980469 234.4375 C 5.980469 261.484375 27.898438 283.410156 54.933594 283.410156 L 320.007812 283.410156 C 347.046875 283.410156 368.964844 261.484375 368.964844 234.4375 C 368.964844 207.398438 347.046875 185.472656 320.007812 185.472656 " fill-opacity="1" fill-rule="nonzero"/></g><path fill="#ffffff" d="M 322.246094 319.121094 L 322.238281 319.121094 L 333.800781 299.089844 L 345.363281 319.121094 L 345.351562 319.121094 C 346.488281 321.085938 347.152344 323.363281 347.152344 325.800781 C 347.152344 333.175781 341.175781 339.15625 333.796875 339.15625 C 326.425781 339.15625 320.445312 333.175781 320.445312 325.800781 C 320.445312 323.363281 321.109375 321.085938 322.246094 319.121094 " fill-opacity="1" fill-rule="nonzero"/><path fill="#ffffff" d="M 286.027344 319.277344 L 286.042969 319.277344 L 274.476562 299.242188 L 262.914062 319.277344 L 262.925781 319.277344 C 261.789062 321.242188 261.125 323.519531 261.125 325.953125 C 261.125 333.328125 267.101562 339.308594 274.476562 339.308594 C 281.851562 339.308594 287.828125 333.328125 287.828125 325.953125 C 287.828125 323.519531 287.167969 321.242188 286.027344 319.277344 " fill-opacity="1" fill-rule="nonzero"/><path fill="#ffffff" d="M 226.707031 319.277344 L 226.71875 319.277344 L 215.15625 299.242188 L 203.59375 319.277344 L 203.605469 319.277344 C 202.464844 321.242188 201.804688 323.519531 201.804688 325.953125 C 201.804688 333.328125 207.78125 339.308594 215.15625 339.308594 C 222.53125 339.308594 228.507812 333.328125 228.507812 325.953125 C 228.507812 323.519531 227.847656 321.242188 226.707031 319.277344 " fill-opacity="1" fill-rule="nonzero"/><path fill="#ffffff" d="M 167.386719 319.277344 L 167.398438 319.277344 L 155.835938 299.242188 L 144.269531 319.277344 L 144.285156 319.277344 C 143.144531 321.242188 142.484375 323.519531 142.484375 325.953125 C 142.484375 333.328125 148.460938 339.308594 155.835938 339.308594 C 163.210938 339.308594 169.1875 333.328125 169.1875 325.953125 C 169.1875 323.519531 168.527344 321.242188 167.386719 319.277344 " fill-opacity="1" fill-rule="nonzero"/><path fill="#ffffff" d="M 108.0625 319.277344 L 108.074219 319.277344 L 96.511719 299.242188 L 84.949219 319.277344 L 84.957031 319.277344 C 83.824219 321.242188 83.15625 323.519531 83.15625 325.953125 C 83.15625 333.328125 89.140625 339.308594 96.511719 339.308594 C 103.886719 339.308594 109.867188 333.328125 109.867188 325.953125 C 109.867188 323.519531 109.199219 321.242188 108.0625 319.277344 " fill-opacity="1" fill-rule="nonzero"/><path fill="#ffffff" d="M 48.738281 319.277344 L 48.753906 319.277344 L 37.1875 299.242188 L 25.625 319.277344 L 25.636719 319.277344 C 24.5 321.242188 23.835938 323.519531 23.835938 325.953125 C 23.835938 333.328125 29.8125 339.308594 37.1875 339.308594 C 44.5625 339.308594 50.539062 333.328125 50.539062 325.953125 C 50.539062 323.519531 49.878906 321.242188 48.738281 319.277344 " fill-opacity="1" fill-rule="nonzero"/><path fill="#ffffff" d="M 145.824219 197.746094 C 145.824219 205.554688 139.496094 211.882812 131.691406 211.882812 C 123.886719 211.882812 117.558594 205.554688 117.558594 197.746094 C 117.558594 189.941406 123.886719 183.609375 131.691406 183.609375 C 139.496094 183.609375 145.824219 189.941406 145.824219 197.746094 " fill-opacity="1" fill-rule="nonzero"/><path fill="#ffffff" d="M 258.886719 197.746094 C 258.886719 205.554688 252.5625 211.882812 244.757812 211.882812 C 236.949219 211.882812 230.625 205.554688 230.625 197.746094 C 230.625 189.941406 236.949219 183.609375 244.757812 183.609375 C 252.5625 183.609375 258.886719 189.941406 258.886719 197.746094 " fill-opacity="1" fill-rule="nonzero"/><path fill="#ffffff" d="M 202.359375 229.15625 C 200.621094 229.15625 199.21875 227.753906 199.21875 226.015625 C 199.21875 219.957031 194.28125 215.023438 188.222656 215.023438 C 182.164062 215.023438 177.230469 219.957031 177.230469 226.015625 C 177.230469 227.753906 175.824219 229.15625 174.09375 229.15625 C 172.355469 229.15625 170.949219 227.753906 170.949219 226.015625 C 170.949219 216.492188 178.699219 208.742188 188.222656 208.742188 C 197.75 208.742188 205.5 216.492188 205.5 226.015625 C 205.5 227.753906 204.089844 229.15625 202.359375 229.15625 " fill-opacity="1" fill-rule="nonzero"/><path stroke-linecap="butt" transform="matrix(0.882614, 0, 0, 0.882614, 143.711173, 2.200619)" fill="none" stroke-linejoin="miter" d="M 40.499988 116.135138 L 56.052156 116.135138 L 56.052156 97.825713 C 56.052156 82.450576 82.230607 89.421169 82.230607 59.918962 C 82.230607 41.786568 67.568019 27.876362 48.187556 27.876362 C 28.01488 27.876362 13.392125 42.897437 14.286131 62.313306 L 29.661268 62.313306 C 28.948719 51.337387 36.813318 43.074468 48.187556 43.074468 C 58.986444 43.074468 67.0325 50.226518 67.0325 59.918962 C 67.0325 83.198531 40.499988 70.182331 40.499988 99.113613 Z M 48.723075 149.465639 C 54.587225 149.465639 59.163475 144.889389 59.163475 139.025239 C 59.163475 133.33812 54.587225 128.76187 48.723075 128.76187 C 43.035956 128.76187 38.282675 133.33812 38.282675 139.025239 C 38.282675 144.889389 43.035956 149.465639 48.723075 149.465639 Z M 48.723075 149.465639 " stroke="#efc332" stroke-width="10.986525" stroke-opacity="1" stroke-miterlimit="4"/><g fill="#ffffff" fill-opacity="1"><g transform="translate(143.724963, 132.8275)"><g><path d="M 35.714844 -28.121094 L 49.453125 -28.121094 L 49.453125 -44.28125 C 49.453125 -57.855469 72.5625 -51.714844 72.5625 -77.734375 C 72.5625 -93.730469 59.632812 -106.015625 42.503906 -106.015625 C 24.726562 -106.015625 11.796875 -92.761719 12.605469 -75.632812 L 26.179688 -75.632812 C 25.535156 -85.328125 32.484375 -92.601562 42.503906 -92.601562 C 52.039062 -92.601562 59.148438 -86.296875 59.148438 -77.734375 C 59.148438 -57.207031 35.714844 -68.683594 35.714844 -43.148438 Z M 42.988281 1.292969 C 48.160156 1.292969 52.199219 -2.746094 52.199219 -7.917969 C 52.199219 -12.929688 48.160156 -16.96875 42.988281 -16.96875 C 37.976562 -16.96875 33.777344 -12.929688 33.777344 -7.917969 C 33.777344 -2.746094 37.976562 1.292969 42.988281 1.292969 Z M 42.988281 1.292969 "/></g></g></g></svg>