<svg xmlns="http://www.w3.org/2000/svg" xmlns:xlink="http://www.w3.org/1999/xlink" width="500" zoomAndPan="magnify" viewBox="0 0 375 149.999998" height="200" preserveAspectRatio="xMidYMid meet" version="1.0"><defs><g/><clipPath id="717fe9a191"><path d="M 136.128906 9 L 288.304688 9 L 288.304688 140 L 136.128906 140 Z M 136.128906 9 " clip-rule="nonzero"/></clipPath></defs><g clip-path="url(#717fe9a191)"><path fill="#fac20c" d="M 210.84375 134.269531 L 213.730469 135.464844 L 223.984375 110.792969 L 221.097656 109.601562 Z M 188.125 138.765625 L 191.011719 139.957031 L 203.0625 110.96875 L 200.175781 109.777344 Z M 167.796875 131.277344 L 170.683594 132.472656 L 179.742188 110.671875 L 176.859375 109.480469 Z M 225.917969 31.242188 L 216.902344 9.566406 L 214.015625 10.757812 L 223.023438 32.441406 Z M 259.210938 10.757812 L 256.324219 9.566406 L 247.308594 31.242188 L 250.203125 32.441406 Z M 256 69.058594 C 260.425781 58.40625 255.335938 46.152344 244.640625 41.734375 C 235.449219 37.941406 225.027344 41.046875 219.417969 49.105469 C 219.492188 49.199219 219.558594 49.296875 219.632812 49.386719 C 219.675781 49.4375 219.710938 49.492188 219.753906 49.539062 C 220.320312 50.238281 220.859375 50.949219 221.363281 51.6875 C 221.472656 51.84375 221.570312 52.015625 221.675781 52.171875 C 222.097656 52.8125 222.5 53.460938 222.871094 54.125 C 223 54.367188 223.121094 54.613281 223.25 54.855469 C 223.566406 55.457031 223.867188 56.066406 224.140625 56.6875 C 224.269531 56.988281 224.398438 57.292969 224.527344 57.605469 C 224.757812 58.183594 224.972656 58.773438 225.167969 59.363281 C 225.289062 59.714844 225.398438 60.0625 225.507812 60.414062 C 225.679688 61 225.824219 61.582031 225.960938 62.171875 C 226.046875 62.542969 226.136719 62.90625 226.210938 63.277344 C 226.332031 63.917969 226.417969 64.5625 226.503906 65.199219 C 226.546875 65.535156 226.601562 65.863281 226.636719 66.199219 C 226.730469 67.183594 226.789062 68.175781 226.789062 69.171875 C 226.789062 70.042969 226.742188 70.929688 226.644531 71.890625 L 233.941406 71.890625 C 234.644531 71.890625 235.347656 71.929688 236.042969 71.996094 C 236.664062 72.0625 237.28125 72.160156 237.886719 72.273438 C 237.945312 72.285156 238.015625 72.285156 238.074219 72.304688 C 242.226562 73.125 245.941406 75.164062 248.835938 78.035156 C 252.027344 75.761719 254.492188 72.683594 256 69.058594 Z M 250.867188 80.40625 C 253.484375 83.917969 255.054688 88.242188 255.054688 92.9375 C 255.054688 95.082031 254.722656 97.164062 254.125 99.117188 L 259.210938 111.351562 L 256.324219 112.546875 L 252.40625 103.117188 C 248.796875 109.582031 241.878906 113.976562 233.941406 113.976562 L 233.941406 110.859375 C 243.859375 110.859375 251.929688 102.820312 251.929688 92.9375 C 251.929688 88.617188 250.398438 84.65625 247.832031 81.554688 L 247.722656 81.429688 C 247.589844 81.269531 247.4375 81.125 247.296875 80.964844 C 246.941406 80.570312 246.578125 80.195312 246.1875 79.839844 C 246.105469 79.761719 246.015625 79.683594 245.929688 79.605469 C 245.550781 79.261719 245.15625 78.941406 244.75 78.636719 C 244.660156 78.5625 244.570312 78.496094 244.472656 78.429688 C 244.050781 78.125 243.617188 77.839844 243.175781 77.578125 C 243.089844 77.523438 243.007812 77.46875 242.914062 77.421875 C 242.449219 77.152344 241.976562 76.910156 241.488281 76.683594 C 241.414062 76.648438 241.347656 76.609375 241.265625 76.574219 C 240.761719 76.351562 240.242188 76.148438 239.710938 75.964844 C 239.648438 75.949219 239.589844 75.925781 239.527344 75.898438 C 238.996094 75.722656 238.441406 75.582031 237.890625 75.457031 C 237.832031 75.445312 237.769531 75.417969 237.714844 75.40625 C 237.171875 75.292969 236.621094 75.207031 236.066406 75.140625 C 235.988281 75.132812 235.914062 75.113281 235.839844 75.109375 C 235.210938 75.042969 234.578125 75.003906 233.941406 75.003906 L 223.074219 75.003906 L 223.335938 73.222656 C 223.347656 73.144531 223.355469 73.070312 223.367188 72.992188 C 223.566406 71.550781 223.664062 70.328125 223.664062 69.171875 C 223.664062 68.25 223.609375 67.335938 223.523438 66.4375 C 223.488281 66.121094 223.433594 65.804688 223.390625 65.488281 C 223.3125 64.910156 223.238281 64.332031 223.121094 63.757812 C 223.054688 63.40625 222.957031 63.058594 222.878906 62.714844 C 222.75 62.183594 222.628906 61.660156 222.46875 61.144531 C 222.371094 60.808594 222.25 60.480469 222.132812 60.148438 C 221.957031 59.625 221.773438 59.105469 221.566406 58.601562 C 221.445312 58.304688 221.304688 58.003906 221.167969 57.707031 C 220.929688 57.183594 220.6875 56.667969 220.417969 56.164062 C 220.277344 55.894531 220.132812 55.640625 219.980469 55.378906 C 219.6875 54.859375 219.375 54.34375 219.050781 53.851562 C 218.894531 53.613281 218.726562 53.382812 218.570312 53.152344 C 218.214844 52.652344 217.855469 52.167969 217.472656 51.691406 C 217.300781 51.472656 217.117188 51.261719 216.933594 51.054688 C 211.78125 45.03125 204.136719 41.199219 195.589844 41.199219 C 180.113281 41.199219 167.523438 53.75 167.523438 69.171875 L 167.523438 70.730469 L 159.386719 70.730469 C 148.285156 70.730469 139.253906 79.730469 139.253906 90.796875 C 139.253906 101.859375 148.285156 110.859375 159.386719 110.859375 L 159.386719 113.976562 C 146.558594 113.976562 136.128906 103.582031 136.128906 90.796875 C 136.128906 78.015625 146.558594 67.617188 159.386719 67.617188 L 164.433594 67.617188 C 165.253906 51.195312 178.917969 38.085938 195.589844 38.085938 C 203.988281 38.085938 211.613281 41.425781 217.226562 46.828125 C 223.75 37.945312 235.46875 34.582031 245.839844 38.859375 C 258.125 43.929688 263.976562 58.011719 258.886719 70.25 C 257.191406 74.332031 254.429688 77.808594 250.867188 80.40625 Z M 265.332031 74.597656 L 287.082031 83.574219 L 288.28125 80.699219 L 266.527344 71.722656 Z M 266.527344 50.390625 L 265.332031 47.519531 L 287.082031 38.535156 L 288.28125 41.414062 L 266.527344 50.390625 " fill-opacity="1" fill-rule="nonzero"/></g><g fill="#eaeffa" fill-opacity="1"><g transform="translate(6.457338, 105.080938)"><g><path d="M 37.078125 -32.5625 L 30.84375 -8.519531 L 23.414062 -32.191406 L 22.207031 -32.15625 L 17.582031 -32.03125 L 11.503906 -8.097656 L 4.027344 -31.660156 L -1.4375 -31.511719 L 8.722656 -0.238281 L 14.449219 -0.394531 L 20.644531 -25.804688 L 28.324219 -0.773438 L 34.101562 -0.929688 L 42.4375 -32.710938 Z M 37.078125 -32.5625 "/></g></g></g><g fill="#eaeffa" fill-opacity="1"><g transform="translate(49.100173, 103.940583)"><g><path d="M 24.105469 -11.136719 C 23.863281 -17.441406 19.144531 -21.863281 12.785156 -21.726562 C 6.371094 -21.589844 1.636719 -16.859375 1.773438 -10.554688 C 1.90625 -4.246094 6.789062 0.273438 13.304688 0.136719 C 18.71875 0.0195312 22.695312 -3.273438 23.808594 -7.871094 L 18.8125 -7.765625 C 17.96875 -5.539062 15.894531 -4.074219 13.214844 -4.015625 C 9.695312 -3.941406 7.171875 -6.359375 6.832031 -9.875 L 24.070312 -10.242188 Z M 12.925781 -17.523438 C 15.660156 -17.582031 17.636719 -16.097656 18.582031 -13.699219 L 7.175781 -13.457031 C 8.074219 -15.839844 10.089844 -17.460938 12.925781 -17.523438 Z M 12.925781 -17.523438 "/></g></g></g><g fill="#eaeffa" fill-opacity="1"><g transform="translate(75.211389, 103.378476)"><g><path d="M 26.316406 -4.542969 C 25.316406 -4.527344 24.363281 -5.035156 24.332031 -6.875 L 24.085938 -21.433594 L 19.09375 -21.351562 L 19.128906 -19.140625 C 17.316406 -20.742188 14.988281 -21.703125 12.308594 -21.65625 C 6.367188 -21.558594 1.71875 -16.640625 1.820312 -10.546875 C 1.921875 -4.449219 6.734375 0.308594 12.671875 0.207031 C 15.722656 0.15625 18.378906 -1.253906 20.128906 -3.441406 C 21.214844 -1.355469 23.289062 0.03125 25.867188 -0.0117188 C 26.496094 -0.0234375 27.070312 -0.191406 27.539062 -0.460938 L 27.472656 -4.5625 Z M 13.226562 -4.429688 C 9.707031 -4.367188 6.871094 -7.109375 6.8125 -10.628906 C 6.753906 -14.148438 9.492188 -16.984375 13.015625 -17.042969 C 16.484375 -17.101562 19.367188 -14.363281 19.429688 -10.839844 C 19.488281 -7.320312 16.695312 -4.484375 13.226562 -4.429688 Z M 13.226562 -4.429688 "/></g></g></g><g fill="#eaeffa" fill-opacity="1"><g transform="translate(103.437844, 102.916328)"><g><path d="M 14.394531 -17.007812 L 14.339844 -21.214844 L 9.03125 -21.144531 L 8.917969 -29.765625 L 3.925781 -29.699219 L 4.035156 -21.082031 L 0.566406 -21.035156 L 0.621094 -16.832031 L 4.089844 -16.875 L 4.226562 -6.574219 C 4.277344 -2.683594 7.625 0.320312 11.464844 0.269531 C 12.671875 0.253906 13.984375 -0.078125 14.503906 -0.453125 L 14.453125 -4.289062 L 12.035156 -4.257812 C 10.457031 -4.238281 9.234375 -5.378906 9.210938 -7.214844 L 9.085938 -16.941406 Z M 14.394531 -17.007812 "/></g></g></g><g fill="#eaeffa" fill-opacity="1"><g transform="translate(119.371846, 102.701578)"><g><path d="M 13.410156 -21.574219 C 11.464844 -21.558594 9.683594 -20.804688 8.277344 -19.582031 L 8.105469 -37.503906 L 3.113281 -37.457031 L 3.46875 -0.03125 L 8.460938 -0.0820312 L 8.339844 -12.75 C 8.320312 -15.007812 10.089844 -16.917969 12.347656 -16.941406 C 14.558594 -16.960938 16.308594 -15.242188 16.328125 -13.035156 L 16.453125 -0.15625 L 21.445312 -0.203125 L 21.316406 -13.554688 C 21.273438 -18.128906 17.773438 -21.617188 13.410156 -21.574219 Z M 13.410156 -21.574219 "/></g></g></g><g fill="#eaeffa" fill-opacity="1"><g transform="translate(143.862554, 102.465765)"><g><path d="M 24.28125 -10.746094 C 24.144531 -17.050781 19.496094 -21.550781 13.132812 -21.515625 C 6.722656 -21.480469 1.910156 -16.832031 1.941406 -10.523438 C 1.976562 -4.214844 6.78125 0.386719 13.300781 0.351562 C 18.714844 0.324219 22.746094 -2.90625 23.929688 -7.484375 L 18.9375 -7.457031 C 18.054688 -5.246094 15.960938 -3.816406 13.28125 -3.800781 C 9.757812 -3.78125 7.273438 -6.242188 6.992188 -9.761719 L 24.234375 -9.851562 Z M 13.207031 -17.3125 C 15.941406 -17.324219 17.894531 -15.8125 18.800781 -13.398438 L 7.394531 -13.339844 C 8.328125 -15.707031 10.371094 -17.296875 13.207031 -17.3125 Z M 13.207031 -17.3125 "/></g></g></g><g fill="#eaeffa" fill-opacity="1"><g transform="translate(169.991613, 102.337818)"><g><path d="M 14.894531 -21.46875 C 12.160156 -21.464844 9.902344 -20.199219 8.433594 -18.148438 L 8.429688 -21.039062 L 3.4375 -21.03125 L 3.46875 -0.00390625 L 8.464844 -0.0117188 L 8.445312 -10.683594 C 8.441406 -14.363281 11.171875 -16.839844 14.796875 -16.84375 C 15.480469 -16.84375 16.058594 -16.742188 16.585938 -16.636719 L 16.578125 -21.316406 C 16.050781 -21.417969 15.472656 -21.472656 14.894531 -21.46875 Z M 14.894531 -21.46875 "/></g></g></g><g fill="#eaeffa" fill-opacity="1"><g transform="translate(186.622045, 102.314132)"><g/></g></g><g fill="#eaeffa" fill-opacity="1"><g transform="translate(199.197979, 102.31692)"><g><path d="M 12.246094 0.46875 C 17.921875 0.492188 22.5625 -2.851562 22.585938 -8.53125 C 22.628906 -19.726562 7.691406 -17.054688 7.71875 -23.519531 C 7.726562 -25.988281 9.675781 -27.136719 11.988281 -27.128906 C 14.09375 -27.121094 15.980469 -26.164062 17.390625 -24.375 L 21.03125 -27.671875 C 19.046875 -30.148438 15.742188 -31.898438 12.007812 -31.910156 C 7.066406 -31.933594 2.585938 -28.847656 2.5625 -23.171875 C 2.523438 -12.710938 17.460938 -15.226562 17.433594 -8.550781 C 17.421875 -5.976562 15.261719 -4.460938 12.320312 -4.472656 C 9.113281 -4.484375 6.703125 -6.28125 5.609375 -8.964844 L 1.183594 -6.304688 C 3.003906 -2.351562 7.199219 0.449219 12.246094 0.46875 Z M 12.246094 0.46875 "/></g></g></g><g fill="#eaeffa" fill-opacity="1"><g transform="translate(223.007852, 102.411208)"><g><path d="M 13.296875 0.53125 C 18.867188 0.574219 23.101562 -2.804688 24.296875 -7.632812 L 19.09375 -7.675781 C 18.074219 -5.527344 15.910156 -4.074219 13.332031 -4.09375 C 9.8125 -4.125 7.046875 -6.878906 7.078125 -10.457031 C 7.105469 -14.03125 9.914062 -16.738281 13.4375 -16.710938 C 16.011719 -16.691406 18.15625 -15.199219 19.136719 -13.035156 L 24.339844 -12.992188 C 23.222656 -17.839844 19.046875 -21.289062 13.476562 -21.335938 C 6.957031 -21.390625 2.132812 -16.644531 2.085938 -10.496094 C 2.035156 -4.347656 6.777344 0.476562 13.296875 0.53125 Z M 13.296875 0.53125 "/></g></g></g><g fill="#eaeffa" fill-opacity="1"><g transform="translate(248.389234, 102.616923)"><g><path d="M 26.4375 -3.761719 C 25.441406 -3.773438 24.5 -4.3125 24.523438 -6.152344 L 24.710938 -20.710938 L 19.71875 -20.773438 L 19.6875 -18.566406 C 17.921875 -20.21875 15.621094 -21.25 12.941406 -21.28125 C 7.003906 -21.359375 2.210938 -16.582031 2.132812 -10.488281 C 2.054688 -4.390625 6.722656 0.507812 12.660156 0.582031 C 15.710938 0.621094 18.410156 -0.710938 20.222656 -2.84375 C 21.246094 -0.726562 23.277344 0.71875 25.855469 0.753906 C 26.484375 0.761719 27.066406 0.609375 27.542969 0.351562 L 27.59375 -3.746094 Z M 13.351562 -4.035156 C 9.832031 -4.078125 7.082031 -6.902344 7.125 -10.421875 C 7.171875 -13.945312 9.992188 -16.695312 13.511719 -16.648438 C 16.984375 -16.605469 19.785156 -13.78125 19.738281 -10.261719 C 19.695312 -6.738281 16.820312 -3.988281 13.351562 -4.035156 Z M 13.351562 -4.035156 "/></g></g></g><g fill="#eaeffa" fill-opacity="1"><g transform="translate(276.608059, 102.982582)"><g><path d="M 14.246094 -21.203125 C 12.144531 -21.238281 10.238281 -20.378906 8.792969 -18.878906 L 8.828125 -20.875 L 3.832031 -20.964844 L 3.46875 0.0585938 L 8.460938 0.148438 L 8.683594 -12.675781 C 8.722656 -14.9375 10.539062 -16.640625 12.851562 -16.601562 C 15.164062 -16.5625 16.871094 -14.796875 16.832031 -12.535156 L 16.609375 0.289062 L 21.546875 0.375 L 21.78125 -12.976562 C 21.859375 -17.546875 18.347656 -21.132812 14.246094 -21.203125 Z M 14.246094 -21.203125 "/></g></g></g><g fill="#eaeffa" fill-opacity="1"><g transform="translate(301.202806, 103.408779)"><g><path d="M 14.335938 -21.144531 C 12.234375 -21.1875 10.324219 -20.335938 8.871094 -18.84375 L 8.914062 -20.839844 L 3.921875 -20.945312 L 3.46875 0.0742188 L 8.460938 0.183594 L 8.738281 -12.640625 C 8.785156 -14.902344 10.609375 -16.597656 12.921875 -16.546875 C 15.234375 -16.496094 16.933594 -14.726562 16.882812 -12.464844 L 16.605469 0.359375 L 21.546875 0.464844 L 21.835938 -12.882812 C 21.933594 -17.457031 18.433594 -21.054688 14.335938 -21.144531 Z M 14.335938 -21.144531 "/></g></g></g><g fill="#eaeffa" fill-opacity="1"><g transform="translate(325.793986, 103.93668)"><g><path d="M 24.605469 -9.984375 C 24.664062 -16.292969 20.15625 -20.933594 13.796875 -21.097656 C 7.386719 -21.261719 2.433594 -16.765625 2.269531 -10.457031 C 2.105469 -4.152344 6.769531 0.597656 13.285156 0.765625 C 18.695312 0.90625 22.824219 -2.195312 24.152344 -6.738281 L 19.160156 -6.867188 C 18.210938 -4.683594 16.070312 -3.316406 13.390625 -3.386719 C 9.871094 -3.476562 7.464844 -6.011719 7.292969 -9.539062 L 24.527344 -9.09375 Z M 13.742188 -16.890625 C 16.472656 -16.820312 18.378906 -15.246094 19.207031 -12.804688 L 7.804688 -13.101562 C 8.8125 -15.441406 10.902344 -16.964844 13.742188 -16.890625 Z M 13.742188 -16.890625 "/></g></g></g><g fill="#eaeffa" fill-opacity="1"><g transform="translate(351.914382, 104.621194)"><g><path d="M 15.554688 -20.996094 C 12.824219 -21.078125 10.527344 -19.882812 8.996094 -17.878906 L 9.078125 -20.765625 L 4.089844 -20.914062 L 3.46875 0.101562 L 8.460938 0.25 L 8.773438 -10.417969 C 8.882812 -14.09375 11.6875 -16.484375 15.3125 -16.375 C 15.996094 -16.355469 16.570312 -16.234375 17.09375 -16.113281 L 17.230469 -20.789062 C 16.710938 -20.910156 16.132812 -20.980469 15.554688 -20.996094 Z M 15.554688 -20.996094 "/></g></g></g></svg>